# xmcd
#
# Track frame offsets:
# 150
# 19595
# 47709
# 68381
# 87606
# 108262
# 139329
# 160819
# 181359
# 210692
# 234655
# 266074
# 285839
#
# Disc length: 4014 seconds
#
# Revision: 1
# Processed by: cddbd v1.5.2PL0 Copyright (c) Steve Scherf et al.
# Submitted via: plextools 2.36
#
DISCID=b10fac0d
DTITLE=Eddie Higgins trio - Portraits Of Love
DYEAR=2009
DGENRE=Jazz
TTITLE0=Eddie Higgins trio - Brownsburg Blues
TTITLE1=Eddie Higgins trio - Flando De Orlando
TTITLE2=Eddie Higgins trio - York Town Girl
TTITLE3=Eddie Higgins trio - Midnight At Maxim's
TTITLE4=Eddie Higgins trio - St.Louis Rendezvous
TTITLE5=Eddie Higgins trio - Alice From Dallas
TTITLE6=Eddie Higgins trio - Chicago Serenade
TTITLE7=Eddie Higgins trio - Mar Descancado
TTITLE8=Eddie Higgins trio - Moonlight On Kinkakuji
TTITLE9=Eddie Higgins trio - La Cubana Caliente
TTITLE10=Eddie Higgins trio - Seoul Music
TTITLE11=Eddie Higgins trio - April In Torino
TTITLE12=Eddie Higgins trio - Anita's Caribbean Caper
EXTD=YEAR: 2009
EXTT0=
EXTT1=
EXTT2=
EXTT3=
EXTT4=
EXTT5=
EXTT6=
EXTT7=
EXTT8=
EXTT9=
EXTT10=
EXTT11=
EXTT12=
PLAYORDER=
